# xmcd
#
# Track frame offsets:
#	150
#	14678
#	26688
#	40201
#	53814
#	70357
#	81071
#	95654
#	111481
#	125621
#	138466
#	166205
#	177451
#	190570
#	203455
#
# Disc length: 2868 seconds
#
# Revision: 1
# Processed by: cddbd v1.5.2PL0 Copyright (c) Steve Scherf et al.
# Submitted via: audiograbber 1.83.01
#
DISCID=d20b320f
DTITLE=Various Artist - A Whole Lotta Country Volume 4
DYEAR=1900
DGENRE=
TTITLE0=Jeanie C. Riley - Harper Valley P.T.A.
TTITLE1=George Jones - We Must Have Been Out Of Our Minds
TTITLE2=Mel McDaniel - Baby's Got Her Blue Jeans On
TTITLE3=Billy Jo Spears - Heartaches By The Number
TTITLE4=Tanya Tucker, Paul Davis and Paul Overstreet - I Won't Take Less Than You
TTITLE4=r Love
TTITLE5=Hank Cochran and Willie Nelson - Ain't Life Hell
TTITLE6=Asleep At The Wheel - The Letter That Johnny Walker Read
TTITLE7=Juice Newton - Lay Back In The Arms Of Someone
TTITLE8=Billy Dean - Billy The Kid
TTITLE9=John Williamson - Old Man Emu
TTITLE10=The Bushwackers - And The Band Played Waltzing Mathilda
TTITLE11=Sonny James - The Cat Came Back
TTITLE12=Tex Williams - Smoke! Smoke! Smoke! (That Cigarette)
TTITLE13=Merle Haggard and The Strangers - The Fightin' Side Of Me
TTITLE14=Wanda Jackson - Silver Threads And Golden Needles
EXTD=
EXTT0=
EXTT1=
EXTT2=
EXTT3=
EXTT4=
EXTT5=
EXTT6=
EXTT7=
EXTT8=
EXTT9=
EXTT10=
EXTT11=
EXTT12=
EXTT13=
EXTT14=
PLAYORDER=
